<svg xmlns="http://www.w3.org/2000/svg" xmlns:xlink="http://www.w3.org/1999/xlink" width="500" zoomAndPan="magnify" viewBox="0 0 375 374.999991" height="500" preserveAspectRatio="xMidYMid meet" version="1.0"><defs><clipPath id="3c9c89ea7f"><path d="M 66 298 L 94 298 L 94 339.375 L 66 339.375 Z M 66 298 " clip-rule="nonzero"/></clipPath></defs><path fill="#63a4ff" d="M 130.710938 101.628906 C 138.167969 93.027344 144.589844 83.175781 153.253906 76.035156 C 202.214844 35.648438 272.730469 51.492188 300.816406 108.410156 C 302.882812 112.601562 306.652344 116.960938 310.742188 118.980469 C 353.675781 140.179688 374.902344 181.113281 365.878906 226.355469 C 357.445312 268.621094 321.082031 299.289062 274.96875 301.652344 C 256.769531 302.582031 238.292969 302.46875 220.207031 300.425781 C 166.980469 294.417969 131.835938 250.917969 135.691406 197.425781 C 136.5625 185.351562 144.652344 176.894531 154.699219 177.542969 C 164.734375 178.191406 171.679688 186.007812 170.246094 198.679688 C 166.300781 233.613281 192.929688 269.304688 238.980469 267.117188 C 253.574219 266.417969 268.371094 267.429688 282.730469 265.3125 C 311.386719 261.082031 332.078125 236.925781 333.210938 208.621094 C 334.3125 180.945312 314.804688 154.808594 286.785156 148.445312 C 277.476562 146.335938 274.328125 142.082031 272.132812 133.28125 C 262.816406 95.953125 220.476562 77.226562 186.851562 95.746094 C 177.703125 100.78125 169.03125 102.953125 158.882812 102.53125 C 150.25 102.171875 141.5625 103.28125 132.898438 103.730469 C 132.164062 103.027344 131.4375 102.324219 130.710938 101.628906 Z M 130.710938 101.628906 " fill-opacity="1" fill-rule="nonzero"/><path fill="#fbc927" d="M 177.71875 298.234375 C 119.164062 314.359375 59.78125 265.082031 62.351562 203.6875 C 64.464844 153.1875 102.867188 113.671875 152.070312 111.386719 C 201.363281 109.101562 243.976562 144.292969 251.148438 193.917969 C 252.441406 202.832031 252.019531 212.261719 250.726562 221.21875 C 249.066406 232.710938 241.246094 237.925781 230.5625 236.519531 C 221.246094 235.296875 215.910156 229 216.757812 217.570312 C 218.402344 195.460938 213.5 175.875 196.101562 161.199219 C 176.6875 144.828125 154.578125 141.394531 131.550781 152.261719 C 109.496094 162.675781 97.40625 180.984375 97.199219 205.492188 C 96.988281 230.792969 109.109375 249.082031 131.644531 261.074219 C 139.695312 265.355469 146.585938 271.902344 153.753906 277.738281 C 161.628906 284.152344 169.214844 290.9375 177.71875 298.234375 Z M 177.71875 298.234375 " fill-opacity="1" fill-rule="nonzero"/><path fill="#fbc927" d="M 21.976562 201.089844 C 16.898438 201.089844 11.710938 201.707031 6.792969 200.828125 C 4.316406 200.386719 2.3125 197.226562 0.101562 195.300781 C 1.9375 193.320312 3.699219 189.710938 5.625 189.617188 C 16.796875 189.066406 28.023438 189.007812 39.1875 189.648438 C 41.140625 189.761719 42.859375 193.984375 44.679688 196.308594 C 42.546875 197.90625 40.558594 200.585938 38.253906 200.875 C 32.910156 201.554688 27.410156 201.089844 21.976562 201.089844 Z M 21.976562 201.089844 " fill-opacity="1" fill-rule="nonzero"/><g clip-path="url(#3c9c89ea7f)"><path fill="#fbc927" d="M 69.847656 339.414062 C 68.425781 335.847656 65.367188 331.894531 66.328125 329.976562 C 71.566406 319.570312 77.632812 309.550781 83.902344 299.707031 C 84.796875 298.308594 88.886719 297.597656 90.5625 298.429688 C 92.175781 299.242188 93.980469 303.1875 93.300781 304.527344 C 87.808594 315.203125 81.808594 325.617188 75.78125 336.003906 C 75.160156 337.074219 73.363281 337.449219 69.847656 339.414062 Z M 69.847656 339.414062 " fill-opacity="1" fill-rule="nonzero"/></g><path fill="#fbc927" d="M 114.246094 97.15625 C 112.609375 99.898438 111.90625 102.660156 110.429688 103.15625 C 108.433594 103.832031 104.550781 103.609375 103.730469 102.324219 C 97.324219 92.277344 91.273438 81.992188 85.621094 71.5 C 84.820312 70 86.097656 66.175781 87.625 64.984375 C 89.019531 63.898438 93.398438 64.042969 94.164062 65.183594 C 101.148438 75.636719 107.617188 86.433594 114.246094 97.15625 Z M 114.246094 97.15625 " fill-opacity="1" fill-rule="nonzero"/><path fill="#fbc927" d="M 54.773438 253.183594 C 54.691406 261.664062 22.347656 280.691406 18.105469 276.898438 C 16.445312 275.421875 16.515625 268.570312 18.082031 267.492188 C 27.066406 261.320312 36.558594 255.78125 46.324219 250.925781 C 48.457031 249.871094 52.417969 252.488281 54.773438 253.183594 Z M 54.773438 253.183594 " fill-opacity="1" fill-rule="nonzero"/><path fill="#fbc927" d="M 67.523438 140.195312 C 63.53125 141.203125 59.53125 143.644531 57.289062 142.527344 C 47.546875 137.6875 38.171875 132.035156 29.046875 126.085938 C 27.425781 125.03125 26.707031 120.890625 27.335938 118.675781 C 27.726562 117.296875 32.160156 115.484375 33.53125 116.210938 C 44.066406 121.832031 54.324219 127.964844 64.5625 134.128906 C 65.570312 134.75 65.824219 136.613281 67.523438 140.195312 Z M 67.523438 140.195312 " fill-opacity="1" fill-rule="nonzero"/></svg>