<svg xmlns="http://www.w3.org/2000/svg" xmlns:xlink="http://www.w3.org/1999/xlink" width="1600" zoomAndPan="magnify" viewBox="0 0 1200 299.999988" height="400" preserveAspectRatio="xMidYMid meet" version="1.0"><defs><g/></defs><path fill="#63a4ff" d="M 129.09375 65.1875 C 136.457031 56.691406 142.800781 46.964844 151.359375 39.910156 C 199.710938 0.0234375 269.355469 15.671875 297.097656 71.886719 C 299.136719 76.027344 302.859375 80.332031 306.902344 82.328125 C 349.304688 103.261719 370.269531 143.691406 361.359375 188.375 C 353.027344 230.121094 317.113281 260.40625 271.570312 262.742188 C 253.59375 263.664062 235.347656 263.550781 217.484375 261.535156 C 164.914062 255.597656 130.203125 212.636719 134.007812 159.804688 C 134.871094 147.878906 142.859375 139.523438 152.785156 140.167969 C 162.695312 140.808594 169.554688 148.527344 168.140625 161.042969 C 164.242188 195.542969 190.542969 230.792969 236.027344 228.632812 C 250.4375 227.945312 265.050781 228.941406 279.234375 226.851562 C 307.535156 222.671875 327.972656 198.8125 329.09375 170.859375 C 330.179688 143.527344 310.914062 117.710938 283.238281 111.425781 C 274.046875 109.34375 270.933594 105.144531 268.765625 96.449219 C 259.566406 59.585938 217.746094 41.085938 184.539062 59.378906 C 175.503906 64.351562 166.941406 66.496094 156.917969 66.078125 C 148.390625 65.726562 139.808594 66.820312 131.253906 67.265625 C 130.527344 66.570312 129.808594 65.875 129.09375 65.1875 Z M 129.09375 65.1875 " fill-opacity="1" fill-rule="nonzero"/><path fill="#fbc927" d="M 175.519531 259.367188 C 117.6875 275.292969 59.039062 226.625 61.578125 165.988281 C 63.660156 116.109375 101.59375 77.085938 150.1875 74.828125 C 198.871094 72.566406 240.957031 107.328125 248.042969 156.335938 C 249.320312 165.144531 248.902344 174.457031 247.625 183.300781 C 245.988281 194.652344 238.261719 199.804688 227.710938 198.414062 C 218.511719 197.207031 213.238281 190.988281 214.078125 179.699219 C 215.699219 157.863281 210.859375 138.519531 193.675781 124.027344 C 174.5 107.855469 152.664062 104.464844 129.921875 115.195312 C 108.140625 125.484375 96.199219 143.566406 95.996094 167.773438 C 95.785156 192.757812 107.753906 210.824219 130.011719 222.667969 C 137.964844 226.894531 144.773438 233.359375 151.847656 239.125 C 159.628906 245.460938 167.121094 252.160156 175.519531 259.367188 Z M 175.519531 259.367188 " fill-opacity="1" fill-rule="nonzero"/><path fill="#fbc927" d="M 21.699219 163.421875 C 16.683594 163.421875 11.5625 164.035156 6.707031 163.164062 C 4.257812 162.726562 2.28125 159.605469 0.0976562 157.703125 C 1.910156 155.746094 3.644531 152.183594 5.550781 152.09375 C 16.585938 151.546875 27.671875 151.488281 38.699219 152.121094 C 40.625 152.234375 42.324219 156.40625 44.121094 158.699219 C 42.015625 160.28125 40.050781 162.921875 37.777344 163.210938 C 32.5 163.882812 27.066406 163.421875 21.699219 163.421875 Z M 21.699219 163.421875 " fill-opacity="1" fill-rule="nonzero"/><path fill="#fbc927" d="M 68.980469 300.039062 C 67.574219 296.519531 64.554688 292.613281 65.503906 290.71875 C 70.679688 280.4375 76.667969 270.542969 82.859375 260.824219 C 83.746094 259.441406 87.785156 258.738281 89.441406 259.5625 C 91.03125 260.363281 92.816406 264.261719 92.144531 265.582031 C 86.71875 276.125 80.792969 286.414062 74.839844 296.667969 C 74.226562 297.726562 72.453125 298.097656 68.980469 300.039062 Z M 68.980469 300.039062 " fill-opacity="1" fill-rule="nonzero"/><path fill="#fbc927" d="M 112.832031 60.769531 C 111.214844 63.480469 110.519531 66.207031 109.0625 66.699219 C 107.089844 67.363281 103.253906 67.144531 102.445312 65.875 C 96.117188 55.953125 90.140625 45.792969 84.558594 35.429688 C 83.765625 33.949219 85.027344 30.171875 86.539062 28.996094 C 87.914062 27.921875 92.242188 28.066406 92.996094 29.191406 C 99.894531 39.515625 106.28125 50.179688 112.832031 60.769531 Z M 112.832031 60.769531 " fill-opacity="1" fill-rule="nonzero"/><path fill="#fbc927" d="M 54.09375 214.871094 C 54.007812 223.246094 22.066406 242.039062 17.875 238.292969 C 16.238281 236.835938 16.304688 230.066406 17.851562 229.003906 C 26.726562 222.90625 36.101562 217.441406 45.746094 212.644531 C 47.851562 211.601562 51.765625 214.183594 54.09375 214.871094 Z M 54.09375 214.871094 " fill-opacity="1" fill-rule="nonzero"/><path fill="#fbc927" d="M 66.683594 103.277344 C 62.738281 104.273438 58.789062 106.683594 56.578125 105.582031 C 46.953125 100.800781 37.695312 95.21875 28.683594 89.34375 C 27.082031 88.300781 26.375 84.214844 26.992188 82.023438 C 27.378906 80.664062 31.757812 78.875 33.109375 79.59375 C 43.519531 85.144531 53.648438 91.199219 63.761719 97.289062 C 64.757812 97.898438 65.007812 99.742188 66.683594 103.277344 Z M 66.683594 103.277344 " fill-opacity="1" fill-rule="nonzero"/><g fill="#2dabe3" fill-opacity="0.4"><g transform="translate(392.534556, 195.15547)"><g><path d="M 102.125 0 L 74.671875 0 L 66.4375 -37.453125 C 66.039062 -39.015625 65.421875 -42.128906 64.578125 -46.796875 C 63.734375 -51.460938 63.117188 -55.363281 62.734375 -58.5 C 62.421875 -55.945312 61.910156 -52.78125 61.203125 -49 C 60.492188 -45.21875 59.796875 -41.738281 59.109375 -38.5625 C 58.429688 -35.394531 55.582031 -22.539062 50.5625 0 L 23.109375 0 L 1.828125 -85.953125 L 24.21875 -85.953125 L 33.5625 -42.859375 C 35.6875 -33.335938 37.140625 -25.753906 37.921875 -20.109375 C 38.429688 -24.109375 39.34375 -29.535156 40.65625 -36.390625 C 41.96875 -43.253906 43.191406 -48.9375 44.328125 -53.4375 L 51.90625 -85.953125 L 73.4375 -85.953125 L 80.78125 -53.4375 C 82.03125 -48.226562 83.300781 -42.210938 84.59375 -35.390625 C 85.894531 -28.566406 86.757812 -23.472656 87.1875 -20.109375 C 87.695312 -24.460938 89.085938 -32.003906 91.359375 -42.734375 L 100.890625 -85.953125 L 123.28125 -85.953125 Z M 102.125 0 "/></g></g></g><g fill="#2dabe3" fill-opacity="0.4"><g transform="translate(517.627141, 195.15547)"><g><path d="M 40.09375 1.171875 C 29 1.171875 20.382812 -1.773438 14.25 -7.671875 C 8.125 -13.566406 5.0625 -21.960938 5.0625 -32.859375 C 5.0625 -44.109375 7.898438 -52.738281 13.578125 -58.75 C 19.265625 -64.769531 27.378906 -67.78125 37.921875 -67.78125 C 47.953125 -67.78125 55.703125 -65.164062 61.171875 -59.9375 C 66.640625 -54.707031 69.375 -47.171875 69.375 -37.328125 L 69.375 -27.109375 L 28.28125 -27.109375 C 28.4375 -23.378906 29.796875 -20.457031 32.359375 -18.34375 C 34.929688 -16.226562 38.429688 -15.171875 42.859375 -15.171875 C 46.898438 -15.171875 50.613281 -15.550781 54 -16.3125 C 57.394531 -17.082031 61.070312 -18.382812 65.03125 -20.21875 L 65.03125 -3.703125 C 61.414062 -1.859375 57.6875 -0.585938 53.84375 0.109375 C 50.007812 0.816406 45.425781 1.171875 40.09375 1.171875 Z M 38.75 -52.15625 C 36.039062 -52.15625 33.773438 -51.300781 31.953125 -49.59375 C 30.128906 -47.882812 29.0625 -45.207031 28.75 -41.5625 L 48.5 -41.5625 C 48.425781 -44.78125 47.515625 -47.347656 45.765625 -49.265625 C 44.023438 -51.191406 41.6875 -52.15625 38.75 -52.15625 Z M 38.75 -52.15625 "/></g></g></g><g fill="#2dabe3" fill-opacity="0.4"><g transform="translate(592.047823, 195.15547)"><g><path d="M 51.390625 0 L 46.96875 -8.8125 L 46.5 -8.8125 C 43.40625 -4.976562 40.25 -2.351562 37.03125 -0.9375 C 33.820312 0.46875 29.671875 1.171875 24.578125 1.171875 C 18.304688 1.171875 13.363281 -0.707031 9.75 -4.46875 C 6.144531 -8.226562 4.34375 -13.519531 4.34375 -20.34375 C 4.34375 -27.4375 6.8125 -32.71875 11.75 -36.1875 C 16.695312 -39.65625 23.851562 -41.601562 33.21875 -42.03125 L 44.328125 -42.390625 L 44.328125 -43.328125 C 44.328125 -48.816406 41.625 -51.5625 36.21875 -51.5625 C 31.351562 -51.5625 25.179688 -49.914062 17.703125 -46.625 L 11.046875 -61.796875 C 18.804688 -65.785156 28.609375 -67.78125 40.453125 -67.78125 C 48.992188 -67.78125 55.601562 -65.664062 60.28125 -61.4375 C 64.96875 -57.207031 67.3125 -51.289062 67.3125 -43.6875 L 67.3125 0 Z M 34.328125 -15.046875 C 37.117188 -15.046875 39.503906 -15.925781 41.484375 -17.6875 C 43.460938 -19.457031 44.453125 -21.753906 44.453125 -24.578125 L 44.453125 -29.75 L 39.15625 -29.515625 C 31.59375 -29.242188 27.8125 -26.460938 27.8125 -21.171875 C 27.8125 -17.085938 29.984375 -15.046875 34.328125 -15.046875 Z M 34.328125 -15.046875 "/></g></g></g><g fill="#2dabe3" fill-opacity="0.4"><g transform="translate(667.056347, 195.15547)"><g><path d="M 40.5625 -16.984375 C 43.664062 -16.984375 47.367188 -17.75 51.671875 -19.28125 L 51.671875 -2.53125 C 48.578125 -1.195312 45.628906 -0.25 42.828125 0.3125 C 40.023438 0.882812 36.742188 1.171875 32.984375 1.171875 C 25.265625 1.171875 19.695312 -0.71875 16.28125 -4.5 C 12.875 -8.28125 11.171875 -14.085938 11.171875 -21.921875 L 11.171875 -49.390625 L 3.109375 -49.390625 L 3.109375 -58.734375 L 13.34375 -65.96875 L 19.28125 -79.953125 L 34.328125 -79.953125 L 34.328125 -66.609375 L 50.671875 -66.609375 L 50.671875 -49.390625 L 34.328125 -49.390625 L 34.328125 -23.453125 C 34.328125 -19.140625 36.40625 -16.984375 40.5625 -16.984375 Z M 40.5625 -16.984375 "/></g></g></g><g fill="#2dabe3" fill-opacity="0.4"><g transform="translate(722.430977, 195.15547)"><g><path d="M 49.859375 0 L 49.859375 -36.328125 C 49.859375 -45.265625 47.210938 -49.734375 41.921875 -49.734375 C 38.160156 -49.734375 35.382812 -48.15625 33.59375 -45 C 31.8125 -41.84375 30.921875 -36.601562 30.921875 -29.28125 L 30.921875 0 L 7.9375 0 L 7.9375 -91.484375 L 30.921875 -91.484375 L 30.921875 -78.484375 C 30.921875 -72.609375 30.609375 -65.90625 29.984375 -58.375 L 31.046875 -58.375 C 33.234375 -61.820312 35.835938 -64.25 38.859375 -65.65625 C 41.878906 -67.070312 45.390625 -67.78125 49.390625 -67.78125 C 56.835938 -67.78125 62.628906 -65.632812 66.765625 -61.34375 C 70.898438 -57.050781 72.96875 -51.046875 72.96875 -43.328125 L 72.96875 0 Z M 49.859375 0 "/></g></g></g><g fill="#2dabe3" fill-opacity="0.4"><g transform="translate(803.082776, 195.15547)"><g><path d="M 40.09375 1.171875 C 29 1.171875 20.382812 -1.773438 14.25 -7.671875 C 8.125 -13.566406 5.0625 -21.960938 5.0625 -32.859375 C 5.0625 -44.109375 7.898438 -52.738281 13.578125 -58.75 C 19.265625 -64.769531 27.378906 -67.78125 37.921875 -67.78125 C 47.953125 -67.78125 55.703125 -65.164062 61.171875 -59.9375 C 66.640625 -54.707031 69.375 -47.171875 69.375 -37.328125 L 69.375 -27.109375 L 28.28125 -27.109375 C 28.4375 -23.378906 29.796875 -20.457031 32.359375 -18.34375 C 34.929688 -16.226562 38.429688 -15.171875 42.859375 -15.171875 C 46.898438 -15.171875 50.613281 -15.550781 54 -16.3125 C 57.394531 -17.082031 61.070312 -18.382812 65.03125 -20.21875 L 65.03125 -3.703125 C 61.414062 -1.859375 57.6875 -0.585938 53.84375 0.109375 C 50.007812 0.816406 45.425781 1.171875 40.09375 1.171875 Z M 38.75 -52.15625 C 36.039062 -52.15625 33.773438 -51.300781 31.953125 -49.59375 C 30.128906 -47.882812 29.0625 -45.207031 28.75 -41.5625 L 48.5 -41.5625 C 48.425781 -44.78125 47.515625 -47.347656 45.765625 -49.265625 C 44.023438 -51.191406 41.6875 -52.15625 38.75 -52.15625 Z M 38.75 -52.15625 "/></g></g></g><g fill="#2dabe3" fill-opacity="0.4"><g transform="translate(877.503458, 195.15547)"><g><path d="M 48.15625 -67.78125 C 50.15625 -67.78125 52.054688 -67.625 53.859375 -67.3125 L 55.140625 -67.078125 L 53.09375 -45.390625 C 51.207031 -45.859375 48.597656 -46.09375 45.265625 -46.09375 C 40.253906 -46.09375 36.609375 -44.945312 34.328125 -42.65625 C 32.054688 -40.363281 30.921875 -37.0625 30.921875 -32.75 L 30.921875 0 L 7.9375 0 L 7.9375 -66.609375 L 25.046875 -66.609375 L 28.625 -55.96875 L 29.75 -55.96875 C 31.664062 -59.5 34.335938 -62.347656 37.765625 -64.515625 C 41.203125 -66.691406 44.664062 -67.78125 48.15625 -67.78125 Z M 48.15625 -67.78125 "/></g></g></g><g fill="#2dabe3" fill-opacity="0.4"><g transform="translate(933.994988, 195.15547)"><g><path d="M 31.046875 0 L 8.046875 0 L 8.046875 -66.609375 L 31.046875 -66.609375 Z M 7.46875 -83.1875 C 7.46875 -86.632812 8.425781 -89.203125 10.34375 -90.890625 C 12.269531 -92.578125 15.367188 -93.421875 19.640625 -93.421875 C 23.910156 -93.421875 27.023438 -92.554688 28.984375 -90.828125 C 30.941406 -89.109375 31.921875 -86.5625 31.921875 -83.1875 C 31.921875 -76.445312 27.828125 -73.078125 19.640625 -73.078125 C 11.523438 -73.078125 7.46875 -76.445312 7.46875 -83.1875 Z M 7.46875 -83.1875 "/></g></g></g><g fill="#2dabe3" fill-opacity="0.4"><g transform="translate(973.145204, 195.15547)"><g><path d="M 55.375 0 L 52.5 -8.296875 L 51.15625 -8.296875 C 49.226562 -5.234375 46.550781 -2.890625 43.125 -1.265625 C 39.695312 0.359375 35.671875 1.171875 31.046875 1.171875 C 23.710938 1.171875 18.003906 -0.953125 13.921875 -5.203125 C 9.847656 -9.453125 7.8125 -15.457031 7.8125 -23.21875 L 7.8125 -66.609375 L 30.8125 -66.609375 L 30.8125 -30.21875 C 30.8125 -25.863281 31.425781 -22.566406 32.65625 -20.328125 C 33.894531 -18.097656 35.925781 -16.984375 38.75 -16.984375 C 42.707031 -16.984375 45.523438 -18.539062 47.203125 -21.65625 C 48.890625 -24.78125 49.734375 -30.046875 49.734375 -37.453125 L 49.734375 -66.609375 L 72.71875 -66.609375 L 72.71875 0 Z M 55.375 0 "/></g></g></g><g fill="#2dabe3" fill-opacity="0.4"><g transform="translate(1053.796967, 195.15547)"><g><path d="M 89.71875 0 L 89.71875 -36.21875 C 89.71875 -40.726562 89.097656 -44.109375 87.859375 -46.359375 C 86.628906 -48.609375 84.679688 -49.734375 82.015625 -49.734375 C 78.484375 -49.734375 75.894531 -48.222656 74.25 -45.203125 C 72.601562 -42.191406 71.78125 -37.472656 71.78125 -31.046875 L 71.78125 0 L 48.734375 0 L 48.734375 -36.21875 C 48.734375 -40.726562 48.144531 -44.109375 46.96875 -46.359375 C 45.800781 -48.609375 43.898438 -49.734375 41.265625 -49.734375 C 37.660156 -49.734375 35.035156 -48.125 33.390625 -44.90625 C 31.742188 -41.695312 30.921875 -36.445312 30.921875 -29.15625 L 30.921875 0 L 7.9375 0 L 7.9375 -66.609375 L 25.28125 -66.609375 L 28.15625 -58.375 L 29.515625 -58.375 C 31.273438 -61.4375 33.832031 -63.769531 37.1875 -65.375 C 40.539062 -66.976562 44.351562 -67.78125 48.625 -67.78125 C 58.226562 -67.78125 64.96875 -64.863281 68.84375 -59.03125 L 70.671875 -59.03125 C 72.546875 -61.769531 75.160156 -63.910156 78.515625 -65.453125 C 81.867188 -67.003906 85.5625 -67.78125 89.59375 -67.78125 C 97.476562 -67.78125 103.300781 -65.757812 107.0625 -61.71875 C 110.820312 -57.6875 112.703125 -51.554688 112.703125 -43.328125 L 112.703125 0 Z M 89.71875 0 "/></g></g></g><g fill="#63a4ff" fill-opacity="1"><g transform="translate(392.534556, 195.15547)"><g><path d="M 102.125 0 L 74.671875 0 L 66.4375 -37.453125 C 66.039062 -39.015625 65.421875 -42.128906 64.578125 -46.796875 C 63.734375 -51.460938 63.117188 -55.363281 62.734375 -58.5 C 62.421875 -55.945312 61.910156 -52.78125 61.203125 -49 C 60.492188 -45.21875 59.796875 -41.738281 59.109375 -38.5625 C 58.429688 -35.394531 55.582031 -22.539062 50.5625 0 L 23.109375 0 L 1.828125 -85.953125 L 24.21875 -85.953125 L 33.5625 -42.859375 C 35.6875 -33.335938 37.140625 -25.753906 37.921875 -20.109375 C 38.429688 -24.109375 39.34375 -29.535156 40.65625 -36.390625 C 41.96875 -43.253906 43.191406 -48.9375 44.328125 -53.4375 L 51.90625 -85.953125 L 73.4375 -85.953125 L 80.78125 -53.4375 C 82.03125 -48.226562 83.300781 -42.210938 84.59375 -35.390625 C 85.894531 -28.566406 86.757812 -23.472656 87.1875 -20.109375 C 87.695312 -24.460938 89.085938 -32.003906 91.359375 -42.734375 L 100.890625 -85.953125 L 123.28125 -85.953125 Z M 102.125 0 "/></g></g></g><g fill="#63a4ff" fill-opacity="1"><g transform="translate(517.627141, 195.15547)"><g><path d="M 40.09375 1.171875 C 29 1.171875 20.382812 -1.773438 14.25 -7.671875 C 8.125 -13.566406 5.0625 -21.960938 5.0625 -32.859375 C 5.0625 -44.109375 7.898438 -52.738281 13.578125 -58.75 C 19.265625 -64.769531 27.378906 -67.78125 37.921875 -67.78125 C 47.953125 -67.78125 55.703125 -65.164062 61.171875 -59.9375 C 66.640625 -54.707031 69.375 -47.171875 69.375 -37.328125 L 69.375 -27.109375 L 28.28125 -27.109375 C 28.4375 -23.378906 29.796875 -20.457031 32.359375 -18.34375 C 34.929688 -16.226562 38.429688 -15.171875 42.859375 -15.171875 C 46.898438 -15.171875 50.613281 -15.550781 54 -16.3125 C 57.394531 -17.082031 61.070312 -18.382812 65.03125 -20.21875 L 65.03125 -3.703125 C 61.414062 -1.859375 57.6875 -0.585938 53.84375 0.109375 C 50.007812 0.816406 45.425781 1.171875 40.09375 1.171875 Z M 38.75 -52.15625 C 36.039062 -52.15625 33.773438 -51.300781 31.953125 -49.59375 C 30.128906 -47.882812 29.0625 -45.207031 28.75 -41.5625 L 48.5 -41.5625 C 48.425781 -44.78125 47.515625 -47.347656 45.765625 -49.265625 C 44.023438 -51.191406 41.6875 -52.15625 38.75 -52.15625 Z M 38.75 -52.15625 "/></g></g></g><g fill="#63a4ff" fill-opacity="1"><g transform="translate(592.047823, 195.15547)"><g><path d="M 51.390625 0 L 46.96875 -8.8125 L 46.5 -8.8125 C 43.40625 -4.976562 40.25 -2.351562 37.03125 -0.9375 C 33.820312 0.46875 29.671875 1.171875 24.578125 1.171875 C 18.304688 1.171875 13.363281 -0.707031 9.75 -4.46875 C 6.144531 -8.226562 4.34375 -13.519531 4.34375 -20.34375 C 4.34375 -27.4375 6.8125 -32.71875 11.75 -36.1875 C 16.695312 -39.65625 23.851562 -41.601562 33.21875 -42.03125 L 44.328125 -42.390625 L 44.328125 -43.328125 C 44.328125 -48.816406 41.625 -51.5625 36.21875 -51.5625 C 31.351562 -51.5625 25.179688 -49.914062 17.703125 -46.625 L 11.046875 -61.796875 C 18.804688 -65.785156 28.609375 -67.78125 40.453125 -67.78125 C 48.992188 -67.78125 55.601562 -65.664062 60.28125 -61.4375 C 64.96875 -57.207031 67.3125 -51.289062 67.3125 -43.6875 L 67.3125 0 Z M 34.328125 -15.046875 C 37.117188 -15.046875 39.503906 -15.925781 41.484375 -17.6875 C 43.460938 -19.457031 44.453125 -21.753906 44.453125 -24.578125 L 44.453125 -29.75 L 39.15625 -29.515625 C 31.59375 -29.242188 27.8125 -26.460938 27.8125 -21.171875 C 27.8125 -17.085938 29.984375 -15.046875 34.328125 -15.046875 Z M 34.328125 -15.046875 "/></g></g></g><g fill="#63a4ff" fill-opacity="1"><g transform="translate(667.056347, 195.15547)"><g><path d="M 40.5625 -16.984375 C 43.664062 -16.984375 47.367188 -17.75 51.671875 -19.28125 L 51.671875 -2.53125 C 48.578125 -1.195312 45.628906 -0.25 42.828125 0.3125 C 40.023438 0.882812 36.742188 1.171875 32.984375 1.171875 C 25.265625 1.171875 19.695312 -0.71875 16.28125 -4.5 C 12.875 -8.28125 11.171875 -14.085938 11.171875 -21.921875 L 11.171875 -49.390625 L 3.109375 -49.390625 L 3.109375 -58.734375 L 13.34375 -65.96875 L 19.28125 -79.953125 L 34.328125 -79.953125 L 34.328125 -66.609375 L 50.671875 -66.609375 L 50.671875 -49.390625 L 34.328125 -49.390625 L 34.328125 -23.453125 C 34.328125 -19.140625 36.40625 -16.984375 40.5625 -16.984375 Z M 40.5625 -16.984375 "/></g></g></g><g fill="#63a4ff" fill-opacity="1"><g transform="translate(722.430977, 195.15547)"><g><path d="M 49.859375 0 L 49.859375 -36.328125 C 49.859375 -45.265625 47.210938 -49.734375 41.921875 -49.734375 C 38.160156 -49.734375 35.382812 -48.15625 33.59375 -45 C 31.8125 -41.84375 30.921875 -36.601562 30.921875 -29.28125 L 30.921875 0 L 7.9375 0 L 7.9375 -91.484375 L 30.921875 -91.484375 L 30.921875 -78.484375 C 30.921875 -72.609375 30.609375 -65.90625 29.984375 -58.375 L 31.046875 -58.375 C 33.234375 -61.820312 35.835938 -64.25 38.859375 -65.65625 C 41.878906 -67.070312 45.390625 -67.78125 49.390625 -67.78125 C 56.835938 -67.78125 62.628906 -65.632812 66.765625 -61.34375 C 70.898438 -57.050781 72.96875 -51.046875 72.96875 -43.328125 L 72.96875 0 Z M 49.859375 0 "/></g></g></g><g fill="#63a4ff" fill-opacity="1"><g transform="translate(803.082776, 195.15547)"><g><path d="M 40.09375 1.171875 C 29 1.171875 20.382812 -1.773438 14.25 -7.671875 C 8.125 -13.566406 5.0625 -21.960938 5.0625 -32.859375 C 5.0625 -44.109375 7.898438 -52.738281 13.578125 -58.75 C 19.265625 -64.769531 27.378906 -67.78125 37.921875 -67.78125 C 47.953125 -67.78125 55.703125 -65.164062 61.171875 -59.9375 C 66.640625 -54.707031 69.375 -47.171875 69.375 -37.328125 L 69.375 -27.109375 L 28.28125 -27.109375 C 28.4375 -23.378906 29.796875 -20.457031 32.359375 -18.34375 C 34.929688 -16.226562 38.429688 -15.171875 42.859375 -15.171875 C 46.898438 -15.171875 50.613281 -15.550781 54 -16.3125 C 57.394531 -17.082031 61.070312 -18.382812 65.03125 -20.21875 L 65.03125 -3.703125 C 61.414062 -1.859375 57.6875 -0.585938 53.84375 0.109375 C 50.007812 0.816406 45.425781 1.171875 40.09375 1.171875 Z M 38.75 -52.15625 C 36.039062 -52.15625 33.773438 -51.300781 31.953125 -49.59375 C 30.128906 -47.882812 29.0625 -45.207031 28.75 -41.5625 L 48.5 -41.5625 C 48.425781 -44.78125 47.515625 -47.347656 45.765625 -49.265625 C 44.023438 -51.191406 41.6875 -52.15625 38.75 -52.15625 Z M 38.75 -52.15625 "/></g></g></g><g fill="#63a4ff" fill-opacity="1"><g transform="translate(877.503458, 195.15547)"><g><path d="M 48.15625 -67.78125 C 50.15625 -67.78125 52.054688 -67.625 53.859375 -67.3125 L 55.140625 -67.078125 L 53.09375 -45.390625 C 51.207031 -45.859375 48.597656 -46.09375 45.265625 -46.09375 C 40.253906 -46.09375 36.609375 -44.945312 34.328125 -42.65625 C 32.054688 -40.363281 30.921875 -37.0625 30.921875 -32.75 L 30.921875 0 L 7.9375 0 L 7.9375 -66.609375 L 25.046875 -66.609375 L 28.625 -55.96875 L 29.75 -55.96875 C 31.664062 -59.5 34.335938 -62.347656 37.765625 -64.515625 C 41.203125 -66.691406 44.664062 -67.78125 48.15625 -67.78125 Z M 48.15625 -67.78125 "/></g></g></g><g fill="#63a4ff" fill-opacity="1"><g transform="translate(933.994988, 195.15547)"><g><path d="M 31.046875 0 L 8.046875 0 L 8.046875 -66.609375 L 31.046875 -66.609375 Z M 7.46875 -83.1875 C 7.46875 -86.632812 8.425781 -89.203125 10.34375 -90.890625 C 12.269531 -92.578125 15.367188 -93.421875 19.640625 -93.421875 C 23.910156 -93.421875 27.023438 -92.554688 28.984375 -90.828125 C 30.941406 -89.109375 31.921875 -86.5625 31.921875 -83.1875 C 31.921875 -76.445312 27.828125 -73.078125 19.640625 -73.078125 C 11.523438 -73.078125 7.46875 -76.445312 7.46875 -83.1875 Z M 7.46875 -83.1875 "/></g></g></g><g fill="#63a4ff" fill-opacity="1"><g transform="translate(973.145204, 195.15547)"><g><path d="M 55.375 0 L 52.5 -8.296875 L 51.15625 -8.296875 C 49.226562 -5.234375 46.550781 -2.890625 43.125 -1.265625 C 39.695312 0.359375 35.671875 1.171875 31.046875 1.171875 C 23.710938 1.171875 18.003906 -0.953125 13.921875 -5.203125 C 9.847656 -9.453125 7.8125 -15.457031 7.8125 -23.21875 L 7.8125 -66.609375 L 30.8125 -66.609375 L 30.8125 -30.21875 C 30.8125 -25.863281 31.425781 -22.566406 32.65625 -20.328125 C 33.894531 -18.097656 35.925781 -16.984375 38.75 -16.984375 C 42.707031 -16.984375 45.523438 -18.539062 47.203125 -21.65625 C 48.890625 -24.78125 49.734375 -30.046875 49.734375 -37.453125 L 49.734375 -66.609375 L 72.71875 -66.609375 L 72.71875 0 Z M 55.375 0 "/></g></g></g><g fill="#63a4ff" fill-opacity="1"><g transform="translate(1053.796967, 195.15547)"><g><path d="M 89.71875 0 L 89.71875 -36.21875 C 89.71875 -40.726562 89.097656 -44.109375 87.859375 -46.359375 C 86.628906 -48.609375 84.679688 -49.734375 82.015625 -49.734375 C 78.484375 -49.734375 75.894531 -48.222656 74.25 -45.203125 C 72.601562 -42.191406 71.78125 -37.472656 71.78125 -31.046875 L 71.78125 0 L 48.734375 0 L 48.734375 -36.21875 C 48.734375 -40.726562 48.144531 -44.109375 46.96875 -46.359375 C 45.800781 -48.609375 43.898438 -49.734375 41.265625 -49.734375 C 37.660156 -49.734375 35.035156 -48.125 33.390625 -44.90625 C 31.742188 -41.695312 30.921875 -36.445312 30.921875 -29.15625 L 30.921875 0 L 7.9375 0 L 7.9375 -66.609375 L 25.28125 -66.609375 L 28.15625 -58.375 L 29.515625 -58.375 C 31.273438 -61.4375 33.832031 -63.769531 37.1875 -65.375 C 40.539062 -66.976562 44.351562 -67.78125 48.625 -67.78125 C 58.226562 -67.78125 64.96875 -64.863281 68.84375 -59.03125 L 70.671875 -59.03125 C 72.546875 -61.769531 75.160156 -63.910156 78.515625 -65.453125 C 81.867188 -67.003906 85.5625 -67.78125 89.59375 -67.78125 C 97.476562 -67.78125 103.300781 -65.757812 107.0625 -61.71875 C 110.820312 -57.6875 112.703125 -51.554688 112.703125 -43.328125 L 112.703125 0 Z M 89.71875 0 "/></g></g></g></svg>